<svg width="24" height="24" viewBox="0 0 24 24" fill="none" xmlns="http://www.w3.org/2000/svg">
<path d="M16 6C16 3.79086 14.2091 2 12 2C9.79086 2 8 3.79086 8 6" stroke="#91C788" stroke-width="1.5" stroke-linecap="round"/>
<path d="M8 6.12602C7.68038 6.04375 7.3453 6 7 6C4.79086 6 3 7.79086 3 10C3 11.2845 3.60547 12.4276 4.54658 13.1595" stroke="#91C788" stroke-width="1.5" stroke-linecap="round"/>
<path d="M16 6.12602C16.3196 6.04375 16.6547 6 17 6C19.2091 6 21 7.79086 21 10C21 11.2632 20.4145 12.3896 19.5 13.1227" stroke="#91C788" stroke-width="1.5" stroke-linecap="round"/>
<path d="M4.5 13.5V18.5C4.5 19.8807 5.61929 21 7 21H17C18.3807 21 19.5 19.8807 19.5 18.5V13.5" stroke="#91C788" stroke-width="1.5" stroke-linecap="round"/>
<path d="M19 17.5H12M9 17.5H5" stroke="#91C788" stroke-width="1.5" stroke-linecap="round" stroke-linejoin="round"/>
<path d="M13.5 15.5V17.5" stroke="#91C788" stroke-width="1.5" stroke-linecap="round" stroke-linejoin="round"/>
<path d="M16 13.5V17.5" stroke="#91C788" stroke-width="1.5" stroke-linecap="round" stroke-linejoin="round"/>
</svg>
