<svg width="24" height="22" viewBox="0 0 24 22" fill="none" xmlns="http://www.w3.org/2000/svg">
<path d="M17.0615 7.36225L16.4435 7.78715L17.0615 7.36225ZM22.6513 7.74356L21.9159 7.59647L22.6513 7.74356ZM20.4823 18.5883L19.7469 18.4413L20.4823 18.5883ZM3.51767 18.5883L2.78223 18.7354L3.51767 18.5883ZM2.60374 6.49346L2.38317 7.21029L2.60374 6.49346ZM7.8952 7.29742L7.24152 6.92972L7.8952 7.29742ZM6.72954 7.76294L6.50898 8.47977L6.72954 7.76294ZM11.2134 1.39844L11.8671 1.76614L11.2134 1.39844ZM12.909 1.32217L13.527 0.897276L12.909 1.32217ZM10.5597 1.03075L7.24152 6.92972L8.54888 7.66511L11.8671 1.76614L10.5597 1.03075ZM6.95011 7.0461L2.8243 5.77662L2.38317 7.21029L6.50898 8.47977L6.95011 7.0461ZM0.593635 7.79244L2.78223 18.7354L4.25311 18.4413L2.06451 7.49827L0.593635 7.79244ZM6.45941 21.75H17.5406V20.25H6.45941V21.75ZM21.2178 18.7354L23.3867 7.89065L21.9159 7.59647L19.7469 18.4413L21.2178 18.7354ZM21.0727 5.9028L17.971 7.03067L18.4836 8.44036L21.5853 7.31249L21.0727 5.9028ZM17.6796 6.93735L13.527 0.897276L12.291 1.74707L16.4435 7.78715L17.6796 6.93735ZM17.971 7.03067C17.864 7.0696 17.7441 7.03123 17.6796 6.93735L16.4435 7.78715C16.8953 8.44428 17.7342 8.71288 18.4836 8.44036L17.971 7.03067ZM23.3867 7.89065C23.6544 6.55239 22.3552 5.43641 21.0727 5.9028L21.5853 7.31249C21.7685 7.24587 21.9541 7.40529 21.9159 7.59647L23.3867 7.89065ZM17.5406 21.75C19.3281 21.75 20.8672 20.4883 21.2178 18.7354L19.7469 18.4413C19.5366 19.493 18.6131 20.25 17.5406 20.25V21.75ZM2.78223 18.7354C3.1328 20.4883 4.67186 21.75 6.45941 21.75V20.25C5.38688 20.25 4.46345 19.493 4.25311 18.4413L2.78223 18.7354ZM2.8243 5.77662C1.55724 5.38676 0.333646 6.4925 0.593635 7.79244L2.06451 7.49827C2.02736 7.31256 2.20216 7.1546 2.38317 7.21029L2.8243 5.77662ZM7.24152 6.92972C7.18386 7.03224 7.06253 7.08069 6.95011 7.0461L6.50898 8.47977C7.29592 8.72191 8.14523 8.38273 8.54888 7.66511L7.24152 6.92972ZM11.8671 1.76614C11.9578 1.60487 12.1861 1.5946 12.291 1.74707L13.527 0.897276C12.7933 -0.169998 11.1947 -0.0980903 10.5597 1.03075L11.8671 1.76614Z" fill="#91C788"/>
</svg>
