<svg width="14" height="14" viewBox="0 0 14 14" fill="none" xmlns="http://www.w3.org/2000/svg">
<g clip-path="url(#clip0_60_7195)">
<path d="M10.303 11.4736L9.77402 10.9419L9.77401 10.9419L10.303 11.4736ZM3.69735 11.4736L3.16788 12.0048L3.16838 12.0052L3.69735 11.4736ZM2.81167 6.15342L3.48374 6.48632L3.48411 6.48557L2.81167 6.15342ZM4.13936 4.53791L3.68328 3.94252L3.68146 3.94393L4.13936 4.53791ZM5.10228 3.60062L4.52125 3.12638L4.52046 3.12734L5.10228 3.60062ZM6.05861 1.93395L6.76177 2.19485L6.76182 2.19473L6.05861 1.93395ZM6.25744 1.16663L6.76674 0.616071L5.73449 -0.338839L5.51651 1.05037L6.25744 1.16663ZM7.26307 2.49336L7.9254 2.14147L7.92412 2.13908L7.26307 2.49336ZM8.01566 5.22768L7.26714 5.18051L7.26705 5.18191L8.01566 5.22768ZM8.07709 6.27079L7.57255 6.82573L7.57482 6.82777L8.07709 6.27079ZM9.51298 5.17704L10.14 5.58861L9.51298 5.17704ZM11.2725 6.33329L10.5862 6.63591L10.5865 6.63664L11.2725 6.33329ZM9.77401 10.9419C9.0329 11.6792 8.05179 12.0833 7.00016 12.0833V13.5833C8.44619 13.5833 9.80827 13.0237 10.832 12.0052L9.77401 10.9419ZM7.00016 12.0833C5.94853 12.0833 4.96743 11.6792 4.22632 10.9419L3.16838 12.0052C4.19205 13.0237 5.55414 13.5833 7.00016 13.5833V12.0833ZM4.22681 10.9424C3.48784 10.2058 3.0835 9.2348 3.0835 8.19963H1.5835C1.5835 9.6364 2.14863 10.9888 3.16788 12.0048L4.22681 10.9424ZM3.0835 8.19963C3.0835 7.59698 3.218 7.02282 3.48374 6.48632L2.13959 5.82053C1.77106 6.56456 1.5835 7.36663 1.5835 8.19963H3.0835ZM3.48411 6.48557C3.74168 5.96411 4.12782 5.49381 4.59727 5.1319L3.68146 3.94393C3.03354 4.44341 2.49949 5.09191 2.13922 5.82127L3.48411 6.48557ZM4.59545 5.1333C4.9962 4.82632 5.36192 4.46995 5.68409 4.0739L4.52046 3.12734C4.2708 3.43426 3.98911 3.70825 3.68328 3.94252L4.59545 5.1333ZM5.68331 4.07486C6.14559 3.50848 6.50923 2.87551 6.76177 2.19485L5.35545 1.67306C5.16105 2.19701 4.88056 2.68615 4.52125 3.12638L5.68331 4.07486ZM6.76182 2.19473C6.8682 1.90787 6.94805 1.60363 6.99837 1.28289L5.51651 1.05037C5.48139 1.27417 5.4265 1.48149 5.35541 1.67318L6.76182 2.19473ZM5.74814 1.71718C6.07528 2.01982 6.35836 2.39298 6.60203 2.84764L7.92412 2.13908C7.61239 1.55743 7.23161 1.04611 6.76674 0.616071L5.74814 1.71718ZM6.60075 2.84525C7.11443 3.81209 7.30442 4.58897 7.26714 5.18051L8.76417 5.27486C8.82548 4.30203 8.50938 3.24063 7.9254 2.14147L6.60075 2.84525ZM7.26705 5.18191C7.26427 5.22737 7.25556 5.28424 7.23808 5.38261C7.22331 5.46567 7.19847 5.59749 7.18666 5.72809C7.16255 5.99457 7.17265 6.46214 7.57256 6.82573L8.58161 5.71586C8.62936 5.75926 8.66083 5.81814 8.67359 5.86791C8.68279 5.90379 8.67616 5.91185 8.68056 5.86321C8.68522 5.81162 8.69566 5.75352 8.71492 5.64517C8.73146 5.55213 8.75554 5.41611 8.76426 5.27345L7.26705 5.18191ZM10.5865 6.63664C10.8056 7.13198 10.9168 7.65738 10.9168 8.19963H12.4168C12.4168 7.44814 12.2618 6.71612 11.9584 6.02994L10.5865 6.63664ZM10.9168 8.19963C10.9168 9.23521 10.5122 10.2075 9.77402 10.9419L10.8319 12.0053C11.852 10.9905 12.4168 9.63599 12.4168 8.19963H10.9168ZM7.57482 6.82777C7.7328 6.97024 7.906 7.01205 8.006 7.02538C8.1099 7.03922 8.19894 7.03123 8.25731 7.02271C8.37428 7.00564 8.47993 6.96917 8.55853 6.93746C8.72317 6.87104 8.90197 6.77077 9.07532 6.65326C9.42167 6.41847 9.83369 6.05521 10.14 5.58861L8.88599 4.76548C8.71365 5.02804 8.45962 5.25846 8.23364 5.41166C8.12082 5.48814 8.03687 5.53044 7.99734 5.54639C7.97385 5.55587 7.99205 5.54554 8.04061 5.53845C8.06477 5.53492 8.12437 5.52789 8.20412 5.53852C8.27998 5.54863 8.43435 5.58305 8.57935 5.71381L7.57482 6.82777ZM10.14 5.58861C10.2419 5.43328 10.2015 5.58242 9.99804 5.56648C9.87915 5.55717 9.88582 5.49772 10.0122 5.63879C10.2416 5.89486 10.4605 6.3507 10.5862 6.63591L11.9587 6.03067C11.8414 5.76472 11.5395 5.09556 11.1294 4.63786C10.9361 4.42204 10.5933 4.10851 10.1152 4.07106C9.55245 4.02699 9.14301 4.37393 8.88599 4.76548L10.14 5.58861Z" fill="#5C5C5C"/>
</g>
<defs>
<clipPath id="clip0_60_7195">
<rect width="14" height="14" fill="white"/>
</clipPath>
</defs>
</svg>
