<svg width="162" height="28" viewBox="0 0 162 28" fill="none" xmlns="http://www.w3.org/2000/svg">
<path d="M14.3438 25.0938C13.4688 25.2917 12.4583 25.3906 11.3125 25.3906C10.1667 25.3906 8.95312 25.1406 7.67188 24.6406C6.40104 24.1406 5.29167 23.4375 4.34375 22.5312C2.30208 20.5833 1.28125 18.0885 1.28125 15.0469C1.28125 11.9635 2.27083 9.34896 4.25 7.20312C6.33333 4.95312 8.98958 3.82812 12.2188 3.82812C15.1562 3.82812 17.5938 4.75521 19.5312 6.60938C21.5833 8.58854 22.6094 11.1823 22.6094 14.3906C22.6094 16.9635 21.8802 19.2135 20.4219 21.1406C19.9635 21.7448 19.4531 22.2865 18.8906 22.7656C19.2656 22.8698 19.7188 23.0417 20.25 23.2812C21.3854 23.8125 22.4583 24.0885 23.4688 24.1094H23.7812C24.3229 24.1094 24.6823 24.0365 24.8594 23.8906L24.9219 23.9375L23.7344 26.9219C23.5885 27.3698 23.3125 27.5938 22.9062 27.5938C22.3125 27.5938 21.7083 27.4688 21.0938 27.2188C20.4792 26.9688 19.9271 26.7344 19.4375 26.5156C18.9583 26.2969 18.5 26.1042 18.0625 25.9375C17.625 25.7708 17.2083 25.6302 16.8125 25.5156C16.1354 25.3281 15.3125 25.1875 14.3438 25.0938ZM5.46875 14.875C5.46875 15.8438 5.63542 16.7448 5.96875 17.5781C6.3125 18.401 6.78125 19.1146 7.375 19.7188C8.64583 21 10.2396 21.6406 12.1562 21.6406C13.9896 21.6406 15.4844 21.0208 16.6406 19.7812C17.8385 18.5104 18.4375 16.8281 18.4375 14.7344C18.4375 12.7552 17.875 11.1042 16.75 9.78125C15.5312 8.36458 13.9167 7.65625 11.9062 7.65625C9.94792 7.65625 8.36458 8.375 7.15625 9.8125C6.03125 11.1667 5.46875 12.8542 5.46875 14.875ZM36.0781 23.5781C34.7448 24.6823 33.2917 25.2344 31.7188 25.2344C30.0312 25.2344 28.7083 24.6667 27.75 23.5312C26.8333 22.4271 26.375 20.9115 26.375 18.9844V12.7812C26.375 10.6979 26.3281 9.50521 26.2344 9.20312C26.151 8.89062 26.0885 8.69271 26.0469 8.60938C26.526 8.65104 27.026 8.67188 27.5469 8.67188H28.8438C29.1875 8.67188 29.6406 8.65625 30.2031 8.625V17.6719C30.2031 19.8177 30.7865 21.0625 31.9531 21.4062C32.3073 21.5104 32.6927 21.5625 33.1094 21.5625C34.3385 21.5625 35.3281 21.1146 36.0781 20.2188V8.67188H39.9531V23C39.9531 23.9167 39.9948 24.5833 40.0781 25H36.0781V23.5781ZM44.4531 4.01562C45.2865 2.71354 46.1562 1.56771 47.0625 0.578125L50.4219 3.21875C49.974 3.77083 49.5573 4.3125 49.1719 4.84375C49.1719 4.84375 48.7708 5.41146 47.9688 6.54688L44.4531 4.01562ZM48.5625 23.25C48.5625 24.1458 48.5833 24.7292 48.625 25H44.6562V8.67188H48.5625V23.25ZM65.75 23.4844C64.5833 24.651 62.7552 25.2344 60.2656 25.2344C57.849 25.2344 55.875 24.5 54.3438 23.0312C52.7917 21.5417 52.0156 19.5625 52.0156 17.0938C52.0156 14.5833 52.7812 12.5208 54.3125 10.9062C55.9375 9.20833 58.1094 8.35938 60.8281 8.35938C62.7552 8.35938 64.3698 8.78125 65.6719 9.625L65.0469 13.625L64.9375 13.6094C64.4375 13.0052 63.9115 12.6094 63.3594 12.4219C62.4635 12.1094 61.5677 11.9531 60.6719 11.9531C59.776 11.9531 59.0729 12.0677 58.5625 12.2969C58.0521 12.526 57.6146 12.8438 57.25 13.25C56.5208 14.0833 56.1562 15.1875 56.1562 16.5625C56.1562 19 57 20.5938 58.6875 21.3438C59.2708 21.5938 59.8854 21.7188 60.5312 21.7188C61.1875 21.7188 61.7552 21.6615 62.2344 21.5469C62.724 21.4323 63.1667 21.276 63.5625 21.0781C64.4062 20.6615 64.9792 20.1771 65.2812 19.625L65.3906 19.6719L65.75 23.4844ZM73.0781 22.9375C73.0781 23.8333 73.1146 24.5208 73.1875 25H69.25V2.65625H73.0781V16.3438L80.2188 8.67188H84.8594L78.7031 15.1562L82.2188 19.9531C82.9792 21.1615 83.5521 22.0469 83.9375 22.6094L84.9688 24.0625C85.2812 24.4688 85.5417 24.7812 85.75 25H83.2812C82.3646 25 81.5781 25.0781 80.9219 25.2344L76.0469 18.1094L73.0781 21.2656V22.9375ZM99.0156 16.0156C98.5156 15.9635 97.8698 15.9375 97.0781 15.9375H92.3438V25H88.0625V4.10938C88.3438 4.13021 88.6667 4.14583 89.0312 4.15625L90.1875 4.1875C90.9792 4.20833 91.8021 4.21875 92.6562 4.21875C95.2188 4.21875 97.6667 4.17708 100 4.09375C99.8854 5.01042 99.8281 6.23438 99.8281 7.76562C99.8281 7.93229 99.8385 8.05729 99.8594 8.14062L99.8281 8.1875C99.276 8.03125 98.5052 7.95312 97.5156 7.95312H92.3438V12.25H96.9062C98.0521 12.25 98.7396 12.2188 98.9688 12.1562L99.0156 16.0156ZM102.453 16.9219C102.453 15.776 102.646 14.6823 103.031 13.6406C103.427 12.5885 103.99 11.6719 104.719 10.8906C106.312 9.20312 108.38 8.35938 110.922 8.35938C113.453 8.35938 115.464 9.15625 116.953 10.75C118.38 12.2708 119.094 14.2448 119.094 16.6719C119.094 19.099 118.359 21.1094 116.891 22.7031C115.339 24.3906 113.281 25.2344 110.719 25.2344C108.073 25.2344 106 24.4062 104.5 22.75C103.135 21.2396 102.453 19.2969 102.453 16.9219ZM106.25 16.8281C106.25 17.4844 106.359 18.1198 106.578 18.7344C106.797 19.349 107.109 19.875 107.516 20.3125C108.38 21.2604 109.516 21.7344 110.922 21.7344C112.224 21.7344 113.25 21.2708 114 20.3438C114.729 19.4479 115.094 18.2812 115.094 16.8438C115.094 15.3854 114.719 14.2083 113.969 13.3125C113.167 12.3542 112.068 11.875 110.672 11.875C109.255 11.875 108.146 12.3854 107.344 13.4062C106.615 14.3438 106.25 15.4844 106.25 16.8281ZM121.172 16.9219C121.172 15.776 121.365 14.6823 121.75 13.6406C122.146 12.5885 122.708 11.6719 123.438 10.8906C125.031 9.20312 127.099 8.35938 129.641 8.35938C132.172 8.35938 134.182 9.15625 135.672 10.75C137.099 12.2708 137.812 14.2448 137.812 16.6719C137.812 19.099 137.078 21.1094 135.609 22.7031C134.057 24.3906 132 25.2344 129.438 25.2344C126.792 25.2344 124.719 24.4062 123.219 22.75C121.854 21.2396 121.172 19.2969 121.172 16.9219ZM124.969 16.8281C124.969 17.4844 125.078 18.1198 125.297 18.7344C125.516 19.349 125.828 19.875 126.234 20.3125C127.099 21.2604 128.234 21.7344 129.641 21.7344C130.943 21.7344 131.969 21.2708 132.719 20.3438C133.448 19.4479 133.812 18.2812 133.812 16.8438C133.812 15.3854 133.438 14.2083 132.688 13.3125C131.885 12.3542 130.786 11.875 129.391 11.875C127.974 11.875 126.865 12.3854 126.062 13.4062C125.333 14.3438 124.969 15.4844 124.969 16.8281ZM152.281 24.125C150.958 24.8646 149.635 25.2344 148.312 25.2344C146.99 25.2344 145.833 25.026 144.844 24.6094C143.854 24.1927 143.01 23.6198 142.312 22.8906C140.875 21.3906 140.156 19.4427 140.156 17.0469C140.156 14.5677 140.99 12.5052 142.656 10.8594C144.333 9.19271 146.479 8.35938 149.094 8.35938C149.896 8.35938 150.682 8.46354 151.453 8.67188V1.71875H155.281V18.4219C155.281 19.8073 155.344 20.7135 155.469 21.1406C155.604 21.5677 155.75 21.8802 155.906 22.0781C156.073 22.276 156.281 22.4635 156.531 22.6406L153.594 25.2344C153.052 24.9427 152.615 24.5729 152.281 24.125ZM149.047 21.6406C149.922 21.6406 150.724 21.474 151.453 21.1406V12.4844C150.724 12.1823 149.932 12.0312 149.078 12.0312C148.224 12.0312 147.49 12.1458 146.875 12.375C146.271 12.6042 145.75 12.9219 145.312 13.3281C144.396 14.1823 143.938 15.2917 143.938 16.6562C143.938 18.1458 144.354 19.3333 145.188 20.2188C146.083 21.1667 147.37 21.6406 149.047 21.6406Z" fill="#91C788"/>
</svg>
