<svg width="28" height="24" viewBox="0 0 28 24" fill="none" xmlns="http://www.w3.org/2000/svg">
<path d="M24.3131 3.37839C23.7173 2.78223 23.0098 2.30931 22.2311 1.98665C21.4524 1.664 20.6177 1.49792 19.7748 1.49792C18.9319 1.49792 18.0973 1.664 17.3186 1.98665C16.5399 2.30931 15.8324 2.78223 15.2365 3.37839L13.9998 4.61505L12.7631 3.37839C11.5595 2.17475 9.92702 1.49855 8.22481 1.49855C6.52261 1.49855 4.89012 2.17475 3.68648 3.37839C2.48284 4.58203 1.80664 6.21452 1.80664 7.91672C1.80664 9.61893 2.48284 11.2514 3.68648 12.4551L4.92315 13.6917L13.9998 22.7684L23.0765 13.6917L24.3131 12.4551C24.9093 11.8592 25.3822 11.1517 25.7049 10.373C26.0275 9.59427 26.1936 8.75962 26.1936 7.91672C26.1936 7.07382 26.0275 6.23918 25.7049 5.46047C25.3822 4.68177 24.9093 3.97427 24.3131 3.37839V3.37839Z" stroke="#064E3B" stroke-width="2" stroke-linecap="round" stroke-linejoin="round"/>
</svg>
