<svg width="24" height="24" viewBox="0 0 24 24" fill="none" xmlns="http://www.w3.org/2000/svg">
<circle cx="12" cy="12" r="10" stroke="black" stroke-width="1.5"/>
<path d="M20.0303 5.03033C20.3232 4.73744 20.3232 4.26256 20.0303 3.96967C19.7374 3.67678 19.2626 3.67678 18.9697 3.96967L20.0303 5.03033ZM19.5303 5.53033L20.0303 5.03033L18.9697 3.96967L18.4697 4.46967L19.5303 5.53033Z" fill="black"/>
<path d="M11 1H13" stroke="black" stroke-width="1.5" stroke-linecap="round" stroke-linejoin="round"/>
<path d="M12.75 7C12.75 6.58579 12.4142 6.25 12 6.25C11.5858 6.25 11.25 6.58579 11.25 7H12.75ZM12 12.5H11.25V13.25H12V12.5ZM15 13.25C15.4142 13.25 15.75 12.9142 15.75 12.5C15.75 12.0858 15.4142 11.75 15 11.75V13.25ZM11.25 7V12.5H12.75V7H11.25ZM12 13.25H15V11.75H12V13.25Z" fill="black"/>
</svg>
